<svg xmlns="http://www.w3.org/2000/svg" viewBox="0 0 374 394" font-family="Arial, Helvetica, 'Liberation Sans', sans-serif"><rect width="100%" height="100%" fill="#fff"/><polygon points="104.4,60.0 270.0,114.4 324.4,280.0" fill="#9a9a9a" fill-opacity="0.45" stroke="none"/><line x1="104.4" y1="60.0" x2="104.4" y2="280.0" stroke="#000" stroke-width="1.8" stroke-dasharray="8 6" stroke-linecap="round"/><line x1="104.4" y1="280.0" x2="324.4" y2="280.0" stroke="#000" stroke-width="1.8" stroke-dasharray="8 6" stroke-linecap="round"/><line x1="104.4" y1="280.0" x2="50.0" y2="334.4" stroke="#000" stroke-width="1.8" stroke-dasharray="8 6" stroke-linecap="round"/><line x1="50.0" y1="114.4" x2="270.0" y2="114.4" stroke="#000" stroke-width="2.2" stroke-linecap="round"/><line x1="270.0" y1="114.4" x2="270.0" y2="334.4" stroke="#000" stroke-width="2.2" stroke-linecap="round"/><line x1="270.0" y1="334.4" x2="50.0" y2="334.4" stroke="#000" stroke-width="2.2" stroke-linecap="round"/><line x1="50.0" y1="334.4" x2="50.0" y2="114.4" stroke="#000" stroke-width="2.2" stroke-linecap="round"/><line x1="104.4" y1="60.0" x2="324.4" y2="60.0" stroke="#000" stroke-width="2.2" stroke-linecap="round"/><line x1="324.4" y1="60.0" x2="324.4" y2="280.0" stroke="#000" stroke-width="2.2" stroke-linecap="round"/><line x1="50.0" y1="114.4" x2="104.4" y2="60.0" stroke="#000" stroke-width="2.2" stroke-linecap="round"/><line x1="270.0" y1="114.4" x2="324.4" y2="60.0" stroke="#000" stroke-width="2.2" stroke-linecap="round"/><line x1="270.0" y1="334.4" x2="324.4" y2="280.0" stroke="#000" stroke-width="2.2" stroke-linecap="round"/><text x="336.4" y="52.0" text-anchor="start" font-size="26">A</text><text x="100.4" y="46.0" text-anchor="middle" font-size="26">B</text><text x="38.0" y="122.4" text-anchor="end" font-size="26">C</text><text x="278.0" y="140.4" text-anchor="start" font-size="26">D</text><text x="336.4" y="288.0" text-anchor="start" font-size="26">E</text><text x="94.4" y="274.0" text-anchor="end" font-size="26">F</text><text x="40.0" y="360.4" text-anchor="end" font-size="26">G</text><text x="278.0" y="362.4" text-anchor="start" font-size="26">H</text><line x1="104.4" y1="60.0" x2="270.0" y2="114.4" stroke="#000" stroke-width="2.6" stroke-linecap="round"/><line x1="270.0" y1="114.4" x2="324.4" y2="280.0" stroke="#000" stroke-width="2.6" stroke-linecap="round"/><line x1="104.4" y1="60.0" x2="324.4" y2="280.0" stroke="#000" stroke-width="2.2" stroke-dasharray="8 6" stroke-linecap="round"/></svg>